<svg width="18" height="18" viewBox="0 0 18 18" fill="none" xmlns="http://www.w3.org/2000/svg">
<path d="M15 8.0058C15.0003 8.57947 14.9294 9.14704 14.7914 9.69627M15 8.0058C15 8.00428 15 8.00276 15 8.00125L14.7914 9.69627M15 8.0058C14.9995 8.57524 14.9296 9.14298 14.7914 9.69627M15 8.0058L14.7914 9.69627M17.0039 16.9982L17.0058 17L17 17.0058L16.9982 17.0039L15.0363 15.0363L17.0039 16.9982ZM13.2556 12.6237L12.9777 12.9777L12.6238 13.2556C12.848 13.0583 13.059 12.8472 13.2556 12.6237ZM8.00125 15C8.57675 14.9999 9.14688 14.9289 9.69932 14.7906C9.14769 14.9295 8.57753 15.0007 8.00125 15ZM3.10967 13.0085C3.05151 12.9517 2.99437 12.8939 2.93827 12.8352C2.97512 12.8737 3.01245 12.9119 3.05026 12.9498C3.06996 12.9695 3.08976 12.989 3.10967 13.0085Z" fill="#5FD4EE" stroke="#5FD4EE" stroke-width="2"/>
</svg>
